<svg width="300" height="300" xmlns="http://www.w3.org/2000/svg">
  <defs>
    <linearGradient id="emotionalGradient" x1="0%" y1="0%" x2="100%" y2="100%">
      <stop offset="0%" style="stop-color:#0056a8;stop-opacity:0.8" />
      <stop offset="100%" style="stop-color:#00417f;stop-opacity:0.8" />
    </linearGradient>
  </defs>
  <rect width="100%" height="100%" fill="url(#emotionalGradient)" rx="150"/>
  <g fill="white" opacity="0.9">
    <!-- Coração -->
    <path d="M150 100 C150 80, 130 60, 110 80 C90 100, 150 140, 150 140 C150 140, 210 100, 190 80 C170 60, 150 80, 150 100 Z"/>
    <!-- Mãos em oração -->
    <path d="M130 180 Q150 160 170 180 Q160 200 150 190 Q140 200 130 180 Z"/>
    <path d="M130 190 Q150 170 170 190 Q160 210 150 200 Q140 210 130 190 Z"/>
  </g>
</svg> 