<svg width="300" height="300" xmlns="http://www.w3.org/2000/svg">
  <defs>
    <linearGradient id="medicalGradient" x1="0%" y1="0%" x2="100%" y2="100%">
      <stop offset="0%" style="stop-color:#D10000;stop-opacity:0.8" />
      <stop offset="100%" style="stop-color:#A80000;stop-opacity:0.8" />
    </linearGradient>
  </defs>
  <rect width="100%" height="100%" fill="url(#medicalGradient)" rx="150"/>
  <g fill="white" opacity="0.9">
    <!-- Estetoscópio -->
    <path d="M150 80 Q180 60 210 80 Q220 90 210 100 Q180 120 150 100 Q120 80 150 80 Z"/>
    <path d="M150 100 Q180 120 210 100 Q220 110 210 120 Q180 140 150 120 Q120 100 150 100 Z"/>
    <circle cx="120" cy="130" r="15"/>
    <circle cx="180" cy="130" r="15"/>
    <path d="M120 130 Q150 150 180 130" stroke="white" stroke-width="3" fill="none"/>
    <!-- Cruz médica -->
    <rect x="140" y="160" width="20" height="60" rx="2"/>
    <rect x="120" y="180" width="60" height="20" rx="2"/>
  </g>
</svg> 