<svg width="1920" height="1080" xmlns="http://www.w3.org/2000/svg">
  <defs>
    <linearGradient id="principlesGradient" x1="0%" y1="0%" x2="100%" y2="100%">
      <stop offset="0%" style="stop-color:#F2F2F2;stop-opacity:1" />
      <stop offset="100%" style="stop-color:#E0E0E0;stop-opacity:1" />
    </linearGradient>
  </defs>
  <rect width="100%" height="100%" fill="url(#principlesGradient)"/>
  <g opacity="0.03">
    <!-- Símbolos de fé e comunidade -->
    <circle cx="300" cy="200" r="20" fill="#D10000"/>
    <circle cx="1600" cy="300" r="15" fill="#0056a8"/>
    <circle cx="400" cy="800" r="25" fill="#D10000"/>
    <circle cx="1400" cy="700" r="18" fill="#0056a8"/>
    <!-- Cruzes estilizadas -->
    <rect x="280" y="180" width="40" height="8" fill="#D10000"/>
    <rect x="296" y="164" width="8" height="40" fill="#D10000"/>
    <rect x="1580" y="280" width="40" height="8" fill="#0056a8"/>
    <rect x="1596" y="264" width="8" height="40" fill="#0056a8"/>
    <!-- Corações -->
    <path d="M400 800 C400 780, 380 760, 360 780 C340 800, 400 840, 400 840 C400 840, 460 800, 440 780 C420 760, 400 780, 400 800 Z" fill="#D10000"/>
    <path d="M1400 700 C1400 680, 1380 660, 1360 680 C1340 700, 1400 740, 1400 740 C1400 740, 1460 700, 1440 680 C1420 660, 1400 680, 1400 700 Z" fill="#0056a8"/>
  </g>
</svg> 